<svg width="33" height="33" viewBox="0 0 33 33" fill="none" xmlns="http://www.w3.org/2000/svg">
<path d="M32.0404 15.8266C32.0404 15.1589 31.9691 14.499 31.8242 13.8469C31.8175 13.7728 31.8169 13.6981 31.8029 13.6251C31.367 11.3258 30.469 9.22198 29.1189 7.31248C28.3612 6.24203 27.5008 5.26256 26.4849 4.42743C26.418 4.36341 26.3546 4.29545 26.2838 4.23704C23.4718 1.91867 20.2486 0.665699 16.6043 0.514623C15.5861 0.472502 14.5701 0.517432 13.5654 0.711752C13.4817 0.718492 13.3969 0.718492 13.3149 0.733655C11.1695 1.13858 9.15384 1.88105 7.3325 3.09976C3.43205 5.70905 1.01877 9.31971 0.226885 13.948C-0.306655 17.0667 0.103328 20.0921 1.42482 22.9879C4.42163 29.5543 11.616 33.8889 19.4085 32.0917C25.6559 30.6506 29.6754 26.6811 31.5305 20.5454C31.9944 19.011 32.1196 17.4267 32.0404 15.8266ZM30.3595 20.2084C28.6617 25.6741 25.1443 29.4077 19.5562 30.768C13.3289 32.2832 8.17774 30.2496 4.23404 25.2377C2.19031 22.6408 1.15749 19.6406 1.21814 16.3225C1.29396 12.1974 2.90413 8.71316 5.85713 5.86237C7.85762 3.93096 10.2366 2.65945 12.9622 2.05852C12.9976 2.05065 13.0301 2.03156 13.0644 2.01752C13.0801 2.03212 13.0964 2.04335 13.1133 2.05178C13.1284 2.03268 13.1447 2.0164 13.1621 2.00404C13.8327 1.91306 14.5005 1.79624 15.1778 1.75974C19.0299 1.55531 22.4311 2.71224 25.4156 5.13957C26.3776 5.9219 27.233 6.816 27.9518 7.81344C29.4334 9.87122 30.4494 12.1368 30.7605 14.6849C30.8728 15.6014 30.8874 16.5186 30.8605 17.4385H30.8588C30.8588 17.4385 30.8537 17.4413 30.8509 17.4435C30.8537 17.4475 30.8565 17.4514 30.8599 17.4548C30.7582 18.3848 30.6381 19.3126 30.3595 20.2084Z" fill="white"/>
<path d="M28.4876 16.3248C24.4041 12.2733 20.3183 8.22398 16.2387 4.16852C16.0814 4.01239 16.0039 3.98544 15.8298 4.15954C12.8459 7.14118 9.85418 10.115 6.86355 13.0904C5.78355 14.1648 4.70187 15.2381 3.62075 16.3119C3.49214 16.3933 3.38656 16.4781 3.5747 16.6084C3.74038 16.7662 3.90606 16.9235 4.07174 17.0813C4.14699 17.1633 4.21888 17.2487 4.29751 17.3273C8.12888 21.1384 11.9631 24.9479 15.7894 28.7652C15.9781 28.9534 16.0691 28.991 16.2808 28.7787C18.4722 26.5805 20.6788 24.397 22.8787 22.2066C23.7857 21.3036 24.6854 20.3937 25.5885 19.4867C26.5759 18.5179 27.5615 17.5474 28.5522 16.5826C28.6977 16.4405 28.5556 16.3927 28.4876 16.3248ZM16.6436 26.4823V23.9022C16.6425 22.9761 16.6425 22.0494 16.6414 21.1233V21.1025C16.6408 20.6234 16.6408 20.1449 16.6397 19.6664V19.6462C16.6391 19.1144 16.6385 18.5825 16.6374 18.0507V18.045C16.6374 17.8311 16.6369 17.6176 16.6363 17.4037V17.3806C16.6363 17.2397 16.6425 17.1549 16.8463 17.1554C18.8418 17.1616 20.8372 17.1627 22.8321 17.1633H22.8489C23.8402 17.1633 24.8315 17.1633 25.8227 17.1639C25.8575 17.1639 25.8924 17.17 25.9901 17.1785C22.8894 20.3089 19.7994 23.3799 16.6436 26.4823ZM16.6459 6.55822C16.7705 6.59585 16.8362 6.68739 16.9115 6.76096C17.9342 7.76289 18.9552 8.76707 19.9774 9.76956C20.0437 9.83471 20.1155 9.89368 20.1846 9.95546C20.2178 9.98803 20.2509 10.02 20.284 10.0521C20.4037 10.2026 20.5379 10.339 20.6923 10.4542C20.7109 10.5036 20.7446 10.5379 20.7945 10.5553C20.8198 10.612 20.8603 10.653 20.9175 10.6766C21.3758 11.1416 21.8296 11.6106 22.2924 12.0711C23.2915 13.064 24.2951 14.053 25.2965 15.0432C25.3184 15.0993 25.3571 15.1392 25.4133 15.1611C25.4318 15.2139 25.4672 15.2499 25.52 15.2684C25.5419 15.3251 25.5807 15.3644 25.6374 15.3863C25.6565 15.4386 25.6919 15.4739 25.7441 15.493C25.8059 15.5711 25.8677 15.6486 25.9283 15.725C25.8688 15.7997 25.798 15.7677 25.7385 15.7677C22.8096 15.7682 19.8802 15.7643 16.9514 15.7705C16.72 15.771 16.6357 15.7385 16.6369 15.4734C16.6414 13.9896 16.6419 12.5052 16.6408 11.0214V11.0057C16.6447 10.8018 16.6492 10.6002 16.6593 10.3963C16.6683 10.2059 16.6537 10.0133 16.6402 9.82011V9.80494C16.6391 8.77437 16.6374 7.74436 16.6369 6.71379C16.6369 6.66886 16.6419 6.62337 16.6459 6.55822ZM15.3058 6.66212C15.3406 6.7267 15.353 6.80084 15.3496 6.88957C15.3479 6.93282 15.3451 6.99123 15.3592 7.03616V7.66012C15.3171 7.72863 15.3491 7.82692 15.3491 7.90105C15.3429 10.4463 15.344 12.9916 15.344 15.5368C15.344 15.5784 15.3463 15.6194 15.3513 15.6587C15.3339 15.7306 15.2834 15.7733 15.1379 15.7727C12.2107 15.7637 9.28357 15.7665 6.35585 15.7665H6.14299C9.20045 12.6962 12.2141 9.68532 15.3058 6.66212ZM15.3603 26.2801C15.3603 26.3048 15.3519 26.3289 15.339 26.4036C12.2253 23.3546 9.17686 20.2915 6.0902 17.161H7.71665C10.1765 17.161 12.637 17.1622 15.0975 17.1594C15.2626 17.1594 15.367 17.1526 15.3665 17.3834C15.3575 20.3488 15.3609 23.3142 15.3603 26.2801Z" fill="white"/>
<path d="M11.58 26.0403C10.9724 26.0425 10.3641 26.0464 9.75646 26.033C7.90423 25.9908 6.57432 24.6469 6.55129 22.7975C6.54399 22.1898 6.54904 21.5821 6.5468 20.9739C6.5468 20.8829 6.56477 20.7863 6.48727 20.7105C6.12895 20.3612 5.77232 20.0113 5.37301 19.6204C5.42243 20.8037 5.34493 21.9258 5.42019 23.0474C5.57688 25.3731 7.32633 27.0939 9.65368 27.1663C10.7095 27.1989 11.7671 27.1759 12.824 27.177C12.8656 27.177 12.9189 27.1927 12.9459 27.1242C12.61 26.8069 12.2691 26.4896 11.9344 26.1655C11.8316 26.0655 11.7182 26.0397 11.58 26.0403Z" fill="white"/>
<path d="M20.5154 6.96427C21.1051 6.95753 21.6943 6.95472 22.2834 6.96652C23.9671 6.99909 25.3611 8.26161 25.5442 9.93693C25.6172 10.6069 25.5576 11.2831 25.5678 11.956C25.5689 12.0481 25.5369 12.1497 25.6003 12.2289C25.9328 12.6389 26.3203 12.9938 26.7185 13.3521C26.7039 12.116 26.8303 10.8911 26.6455 9.67633C26.3473 7.71179 24.8214 6.14543 22.9433 5.89775C21.6898 5.73208 20.4267 5.87304 19.1681 5.82025C19.491 6.16228 19.7977 6.47791 20.0931 6.80309C20.2121 6.93394 20.3464 6.96652 20.5154 6.96427Z" fill="white"/>
<path d="M6.40021 12.3261C6.5131 12.2098 6.54848 12.0834 6.54567 11.9239C6.53613 11.391 6.53556 10.858 6.5395 10.325C6.55466 8.41325 7.94916 7.00134 9.8626 6.96596C10.4422 6.95585 11.0218 6.96764 11.6014 6.96708C11.6845 6.96708 11.8002 6.9873 11.8457 6.94293C12.2107 6.58068 12.5629 6.20608 12.9111 5.84215C11.8086 5.84215 10.6949 5.79498 9.58628 5.85226C7.39147 5.96627 5.65831 7.65787 5.4303 9.84594C5.31011 11.0023 5.40895 12.1626 5.42524 13.3555C5.74986 13.0118 6.0711 12.6653 6.40021 12.3261Z" fill="white"/>
<path d="M26.7118 21.5232C26.7213 20.9031 26.714 20.2831 26.714 19.5929C26.358 19.9596 26.0232 20.25 25.7424 20.5948C25.5801 20.6925 25.5414 20.8397 25.5408 21.0228C25.5397 21.7804 25.6127 22.5436 25.5099 23.2945C25.2976 24.8463 24.0373 25.965 22.4552 26.0302C21.792 26.0577 21.127 26.0358 20.4626 26.0369C20.3615 26.0375 20.2599 26.0195 20.1751 26.1077C19.8353 26.4598 19.491 26.808 19.1164 27.1905C20.3868 27.159 21.619 27.2388 22.8495 27.1365C23.0163 27.1231 23.1831 27.0882 23.3465 27.0512C25.1825 26.6328 26.6343 24.9153 26.6562 23.1389C26.6668 23.1131 26.6781 23.0884 26.6781 23.0592V23.012C26.7539 22.5178 26.7045 22.0191 26.7118 21.5232Z" fill="white"/>
</svg>
